<svg width="60" height="60" viewBox="0 0 60 60" fill="none" xmlns="http://www.w3.org/2000/svg">
<path d="M7.5 16.25C7.5 36.2702 23.7297 52.5 43.75 52.5C45.415 52.5 47.054 52.3878 48.6592 52.1705C50.9367 51.862 52.5 49.823 52.5 47.525V41.1037C52.5 38.9517 51.1227 37.041 49.0812 36.3605L41.2103 33.7368C39.209 33.0698 37.063 34.2475 36.5515 36.2943C35.8687 39.0255 32.4675 39.9675 30.4767 37.9767L22.0232 29.5233C20.0325 27.5325 20.9746 24.1313 23.7057 23.4486C25.7525 22.9369 26.9302 20.7911 26.2632 18.7897L23.6396 10.9188C22.959 8.87715 21.0483 7.5 18.8962 7.5H12.4751C10.177 7.5 8.13795 9.06333 7.82963 11.3407C7.61225 12.9461 7.5 14.585 7.5 16.25Z" stroke="#F8D700" stroke-width="5" stroke-linejoin="round"/>
</svg>
