<svg width="125" height="12" viewBox="0 0 125 12" fill="none" xmlns="http://www.w3.org/2000/svg">
<path d="M10.0635 0.0942383L6.09375 11H4.16016L0.19043 0.0942383H1.74316L5.16357 9.68896L8.58398 0.0942383H10.0635ZM20.7422 11H18.8599L15.2124 6.66406H13.1689V11H11.7188V0.0942383H14.7729C15.4321 0.0942383 15.9814 0.138184 16.4209 0.226074C16.8604 0.309082 17.2559 0.460449 17.6074 0.680176C18.0029 0.929199 18.3105 1.24414 18.5303 1.625C18.7549 2.00098 18.8672 2.47949 18.8672 3.06055C18.8672 3.84668 18.6694 4.50586 18.2739 5.03809C17.8784 5.56543 17.334 5.96338 16.6406 6.23193L20.7422 11ZM17.3511 3.16309C17.3511 2.85059 17.2949 2.57471 17.1826 2.33545C17.0752 2.09131 16.8945 1.88623 16.6406 1.72021C16.4307 1.57861 16.1816 1.48096 15.8936 1.42725C15.6055 1.36865 15.2661 1.33936 14.8755 1.33936H13.1689V5.45557H14.6338C15.0928 5.45557 15.4932 5.4165 15.835 5.33838C16.1768 5.25537 16.4673 5.104 16.7065 4.88428C16.9263 4.6792 17.0874 4.44482 17.1899 4.18115C17.2974 3.9126 17.3511 3.57324 17.3511 3.16309ZM25.9937 11H21.687V9.88672H23.1152V1.20752H21.687V0.0942383H25.9937V1.20752H24.5654V9.88672H25.9937V11ZM32.4609 8.16553C32.4609 9.12256 32.168 9.85986 31.582 10.3774C31.001 10.895 30.2197 11.1538 29.2383 11.1538C29.0039 11.1538 28.6914 11.1318 28.3008 11.0879C27.9102 11.0488 27.583 11 27.3193 10.9414V9.58643H27.3999C27.6001 9.65479 27.8467 9.72559 28.1396 9.79883C28.4326 9.87207 28.7329 9.90869 29.0405 9.90869C29.4897 9.90869 29.8462 9.85742 30.1099 9.75488C30.3784 9.65234 30.5762 9.50586 30.7031 9.31543C30.835 9.12012 30.918 8.88086 30.9521 8.59766C30.9912 8.31445 31.0107 7.9873 31.0107 7.61621V1.25146H28.7036V0.0942383H32.4609V8.16553ZM39.5142 6.89111H34.9438V5.56543H39.5142V6.89111ZM45.7251 11H41.4185V9.88672H42.8467V1.20752H41.4185V0.0942383H45.7251V1.20752H44.2969V9.88672H45.7251V11ZM56.5137 11H54.7192L49.5483 1.24414V11H48.1934V0.0942383H50.4419L55.1587 9.00049V0.0942383H56.5137V11ZM67.1924 1.3833H63.2959V11H61.8457V1.3833H57.9492V0.0942383H67.1924V1.3833ZM75.8423 11H68.6572V0.0942383H75.8423V1.3833H70.1074V4.37158H75.8423V5.66064H70.1074V9.71094H75.8423V11ZM87.1729 11H85.2905L81.6431 6.66406H79.5996V11H78.1494V0.0942383H81.2036C81.8628 0.0942383 82.4121 0.138184 82.8516 0.226074C83.291 0.309082 83.6865 0.460449 84.0381 0.680176C84.4336 0.929199 84.7412 1.24414 84.9609 1.625C85.1855 2.00098 85.2979 2.47949 85.2979 3.06055C85.2979 3.84668 85.1001 4.50586 84.7046 5.03809C84.3091 5.56543 83.7646 5.96338 83.0713 6.23193L87.1729 11ZM83.7817 3.16309C83.7817 2.85059 83.7256 2.57471 83.6133 2.33545C83.5059 2.09131 83.3252 1.88623 83.0713 1.72021C82.8613 1.57861 82.6123 1.48096 82.3242 1.42725C82.0361 1.36865 81.6968 1.33936 81.3062 1.33936H79.5996V5.45557H81.0645C81.5234 5.45557 81.9238 5.4165 82.2656 5.33838C82.6074 5.25537 82.8979 5.104 83.1372 4.88428C83.3569 4.6792 83.5181 4.44482 83.6206 4.18115C83.728 3.9126 83.7817 3.57324 83.7817 3.16309ZM92.4243 11H88.1177V9.88672H89.5459V1.20752H88.1177V0.0942383H92.4243V1.20752H90.9961V9.88672H92.4243V11ZM102.078 11H94.8926V0.0942383H102.078V1.3833H96.3428V4.37158H102.078V5.66064H96.3428V9.71094H102.078V11ZM112.595 6.62012C112.595 7.41113 112.507 8.10205 112.332 8.69287C112.161 9.27881 111.877 9.76709 111.482 10.1577C111.106 10.5288 110.667 10.7998 110.164 10.9707C109.661 11.1416 109.075 11.2271 108.406 11.2271C107.722 11.2271 107.126 11.1367 106.619 10.9561C106.111 10.7754 105.684 10.5093 105.337 10.1577C104.941 9.75732 104.656 9.27393 104.48 8.70752C104.309 8.14111 104.224 7.44531 104.224 6.62012V0.0942383H105.674V6.69336C105.674 7.28418 105.713 7.75049 105.791 8.09229C105.874 8.43408 106.011 8.74414 106.201 9.02246C106.416 9.33984 106.707 9.5791 107.073 9.74023C107.444 9.90137 107.888 9.98193 108.406 9.98193C108.928 9.98193 109.373 9.90381 109.739 9.74756C110.105 9.58643 110.398 9.34473 110.618 9.02246C110.808 8.74414 110.942 8.42676 111.021 8.07031C111.104 7.70898 111.145 7.26221 111.145 6.72998V0.0942383H112.595V6.62012ZM124.395 11H122.512L118.865 6.66406H116.821V11H115.371V0.0942383H118.425C119.084 0.0942383 119.634 0.138184 120.073 0.226074C120.513 0.309082 120.908 0.460449 121.26 0.680176C121.655 0.929199 121.963 1.24414 122.183 1.625C122.407 2.00098 122.52 2.47949 122.52 3.06055C122.52 3.84668 122.322 4.50586 121.926 5.03809C121.531 5.56543 120.986 5.96338 120.293 6.23193L124.395 11ZM121.003 3.16309C121.003 2.85059 120.947 2.57471 120.835 2.33545C120.728 2.09131 120.547 1.88623 120.293 1.72021C120.083 1.57861 119.834 1.48096 119.546 1.42725C119.258 1.36865 118.918 1.33936 118.528 1.33936H116.821V5.45557H118.286C118.745 5.45557 119.146 5.4165 119.487 5.33838C119.829 5.25537 120.12 5.104 120.359 4.88428C120.579 4.6792 120.74 4.44482 120.842 4.18115C120.95 3.9126 121.003 3.57324 121.003 3.16309Z" fill="black"/>
</svg>
