<svg width="60" height="60" viewBox="0 0 60 60" fill="none" xmlns="http://www.w3.org/2000/svg">
<path d="M32.0397 51.5193C42.1272 46.3755 50 37.8572 50 27.5C50 16.4543 41.0458 7.5 30 7.5C18.9543 7.5 10 16.4543 10 27.5C10 37.8572 17.8727 46.3755 27.9603 51.5193C29.242 52.1728 30.758 52.1728 32.0397 51.5193Z" stroke="#F8D700" stroke-width="3.75" stroke-linecap="round" stroke-linejoin="round"/>
<path d="M37.5 27.5C37.5 31.6423 34.1423 35 30 35C25.8577 35 22.5 31.6423 22.5 27.5C22.5 23.3579 25.8577 20 30 20C34.1423 20 37.5 23.3579 37.5 27.5Z" stroke="#F8D700" stroke-width="3.75" stroke-linecap="round" stroke-linejoin="round"/>
</svg>
