<svg width="234" height="34" viewBox="0 0 234 34" fill="none" xmlns="http://www.w3.org/2000/svg">
<path d="M40.7206 30H19V31.1691H40.7206V30Z" fill="#F49E03" stroke="#F49E03" stroke-miterlimit="1" stroke-linejoin="round"/>
<path d="M21.7 3.20001H35.2" stroke="black" stroke-linecap="round"/>
<path d="M21.7 3.20001V28.55" stroke="black" stroke-linecap="round"/>
<path d="M21.7 28.6415L32.4137 19.265" stroke="black" stroke-linecap="round"/>
<path d="M33.85 11.3L32.425 19.25" stroke="black" stroke-linecap="round"/>
<path d="M35.35 11.3L33.925 19.25" stroke="black" stroke-linecap="round"/>
<path d="M33.8501 11.3L30.1001 8.75" stroke="black" stroke-linecap="round"/>
<path d="M35.3501 11.3L31.6001 8.75" stroke="black" stroke-linecap="round"/>
<path d="M30.1001 8.75001L33.7001 3.20001" stroke="black" stroke-linecap="round"/>
<path d="M31.6001 8.75001L35.2001 3.20001" stroke="black" stroke-linecap="round"/>
<path d="M51.05 22V11.5H55.85C56.81 11.5 57.635 11.655 58.325 11.965C59.025 12.275 59.565 12.725 59.945 13.315C60.325 13.895 60.515 14.585 60.515 15.385C60.515 16.175 60.325 16.86 59.945 17.44C59.565 18.02 59.025 18.47 58.325 18.79C57.635 19.1 56.81 19.255 55.85 19.255H52.7L54.02 17.965V22H51.05ZM54.02 18.28L52.7 16.915H55.67C56.29 16.915 56.75 16.78 57.05 16.51C57.36 16.24 57.515 15.865 57.515 15.385C57.515 14.895 57.36 14.515 57.05 14.245C56.75 13.975 56.29 13.84 55.67 13.84H52.7L54.02 12.475V18.28ZM61.8867 22V13.87H64.6017V16.24L64.1967 15.565C64.4367 14.955 64.8267 14.5 65.3667 14.2C65.9067 13.89 66.5617 13.735 67.3317 13.735V16.3C67.2017 16.28 67.0867 16.27 66.9867 16.27C66.8967 16.26 66.7967 16.255 66.6867 16.255C66.1067 16.255 65.6367 16.415 65.2767 16.735C64.9167 17.045 64.7367 17.555 64.7367 18.265V22H61.8867ZM72.6945 22.135C71.7345 22.135 70.8945 21.955 70.1745 21.595C69.4645 21.225 68.9095 20.725 68.5095 20.095C68.1195 19.455 67.9245 18.73 67.9245 17.92C67.9245 17.11 68.1145 16.39 68.4945 15.76C68.8845 15.12 69.4195 14.625 70.0995 14.275C70.7795 13.915 71.5445 13.735 72.3945 13.735C73.1945 13.735 73.9245 13.9 74.5845 14.23C75.2445 14.55 75.7695 15.025 76.1595 15.655C76.5495 16.285 76.7445 17.05 76.7445 17.95C76.7445 18.05 76.7395 18.165 76.7295 18.295C76.7195 18.425 76.7095 18.545 76.6995 18.655H70.2645V17.155H75.1845L74.1045 17.575C74.1145 17.205 74.0445 16.885 73.8945 16.615C73.7545 16.345 73.5545 16.135 73.2945 15.985C73.0445 15.835 72.7495 15.76 72.4095 15.76C72.0695 15.76 71.7695 15.835 71.5095 15.985C71.2595 16.135 71.0645 16.35 70.9245 16.63C70.7845 16.9 70.7145 17.22 70.7145 17.59V18.025C70.7145 18.425 70.7945 18.77 70.9545 19.06C71.1245 19.35 71.3645 19.575 71.6745 19.735C71.9845 19.885 72.3545 19.96 72.7845 19.96C73.1845 19.96 73.5245 19.905 73.8045 19.795C74.0945 19.675 74.3795 19.495 74.6595 19.255L76.1595 20.815C75.7695 21.245 75.2895 21.575 74.7195 21.805C74.1495 22.025 73.4745 22.135 72.6945 22.135ZM83.1736 22.135C82.4436 22.135 81.8336 21.985 81.3436 21.685C80.8636 21.385 80.5036 20.925 80.2636 20.305C80.0236 19.685 79.9036 18.89 79.9036 17.92C79.9036 16.97 80.0286 16.185 80.2786 15.565C80.5386 14.945 80.9136 14.485 81.4036 14.185C81.8936 13.885 82.4836 13.735 83.1736 13.735C83.9136 13.735 84.5836 13.905 85.1836 14.245C85.7936 14.585 86.2736 15.07 86.6236 15.7C86.9836 16.32 87.1636 17.06 87.1636 17.92C87.1636 18.79 86.9836 19.54 86.6236 20.17C86.2736 20.79 85.7936 21.275 85.1836 21.625C84.5836 21.965 83.9136 22.135 83.1736 22.135ZM78.0586 22V10.87H80.9086V15.235L80.7586 17.92L80.7736 20.605V22H78.0586ZM82.5736 19.87C82.8936 19.87 83.1786 19.795 83.4286 19.645C83.6886 19.495 83.8936 19.275 84.0436 18.985C84.2036 18.685 84.2836 18.33 84.2836 17.92C84.2836 17.51 84.2036 17.165 84.0436 16.885C83.8936 16.595 83.6886 16.375 83.4286 16.225C83.1786 16.075 82.8936 16 82.5736 16C82.2536 16 81.9636 16.075 81.7036 16.225C81.4536 16.375 81.2486 16.595 81.0886 16.885C80.9386 17.165 80.8636 17.51 80.8636 17.92C80.8636 18.33 80.9386 18.685 81.0886 18.985C81.2486 19.275 81.4536 19.495 81.7036 19.645C81.9636 19.795 82.2536 19.87 82.5736 19.87ZM92.7482 22.135C91.7882 22.135 90.9482 21.955 90.2282 21.595C89.5182 21.225 88.9632 20.725 88.5632 20.095C88.1732 19.455 87.9782 18.73 87.9782 17.92C87.9782 17.11 88.1682 16.39 88.5482 15.76C88.9382 15.12 89.4732 14.625 90.1532 14.275C90.8332 13.915 91.5982 13.735 92.4482 13.735C93.2482 13.735 93.9782 13.9 94.6382 14.23C95.2982 14.55 95.8232 15.025 96.2132 15.655C96.6032 16.285 96.7982 17.05 96.7982 17.95C96.7982 18.05 96.7932 18.165 96.7832 18.295C96.7732 18.425 96.7632 18.545 96.7532 18.655H90.3182V17.155H95.2382L94.1582 17.575C94.1682 17.205 94.0982 16.885 93.9482 16.615C93.8082 16.345 93.6082 16.135 93.3482 15.985C93.0982 15.835 92.8032 15.76 92.4632 15.76C92.1232 15.76 91.8232 15.835 91.5632 15.985C91.3132 16.135 91.1182 16.35 90.9782 16.63C90.8382 16.9 90.7682 17.22 90.7682 17.59V18.025C90.7682 18.425 90.8482 18.77 91.0082 19.06C91.1782 19.35 91.4182 19.575 91.7282 19.735C92.0382 19.885 92.4082 19.96 92.8382 19.96C93.2382 19.96 93.5782 19.905 93.8582 19.795C94.1482 19.675 94.4332 19.495 94.7132 19.255L96.2132 20.815C95.8232 21.245 95.3432 21.575 94.7732 21.805C94.2032 22.025 93.5282 22.135 92.7482 22.135ZM98.1123 22V13.87H100.827V16.24L100.422 15.565C100.662 14.955 101.052 14.5 101.592 14.2C102.132 13.89 102.787 13.735 103.557 13.735V16.3C103.427 16.28 103.312 16.27 103.212 16.27C103.122 16.26 103.022 16.255 102.912 16.255C102.332 16.255 101.862 16.415 101.502 16.735C101.142 17.045 100.962 17.555 100.962 18.265V22H98.1123ZM108.612 22.135C107.572 22.135 106.762 21.88 106.182 21.37C105.602 20.85 105.312 20.07 105.312 19.03V12.055H108.162V19C108.162 19.29 108.242 19.52 108.402 19.69C108.562 19.85 108.767 19.93 109.017 19.93C109.357 19.93 109.647 19.845 109.887 19.675L110.592 21.67C110.352 21.83 110.057 21.945 109.707 22.015C109.357 22.095 108.992 22.135 108.612 22.135ZM104.127 16.3V14.17H110.022V16.3H104.127ZM114.932 22L119.567 11.5H122.492L127.142 22H124.052L120.422 12.955H121.592L117.962 22H114.932ZM117.467 19.96L118.232 17.77H123.362L124.127 19.96H117.467ZM131.315 22.135C130.575 22.135 129.9 21.965 129.29 21.625C128.69 21.275 128.21 20.79 127.85 20.17C127.49 19.54 127.31 18.79 127.31 17.92C127.31 17.06 127.49 16.32 127.85 15.7C128.21 15.07 128.69 14.585 129.29 14.245C129.9 13.905 130.575 13.735 131.315 13.735C132.015 13.735 132.605 13.885 133.085 14.185C133.575 14.485 133.945 14.945 134.195 15.565C134.445 16.185 134.57 16.97 134.57 17.92C134.57 18.89 134.45 19.685 134.21 20.305C133.97 20.925 133.61 21.385 133.13 21.685C132.65 21.985 132.045 22.135 131.315 22.135ZM131.915 19.87C132.235 19.87 132.52 19.795 132.77 19.645C133.03 19.495 133.235 19.275 133.385 18.985C133.535 18.685 133.61 18.33 133.61 17.92C133.61 17.51 133.535 17.165 133.385 16.885C133.235 16.595 133.03 16.375 132.77 16.225C132.52 16.075 132.235 16 131.915 16C131.585 16 131.29 16.075 131.03 16.225C130.78 16.375 130.58 16.595 130.43 16.885C130.28 17.165 130.205 17.51 130.205 17.92C130.205 18.33 130.28 18.685 130.43 18.985C130.58 19.275 130.78 19.495 131.03 19.645C131.29 19.795 131.585 19.87 131.915 19.87ZM133.7 22V20.605L133.715 17.92L133.565 15.235V10.87H136.415V22H133.7ZM140.514 22L137.169 13.87H140.094L142.764 20.665H141.294L144.099 13.87H146.814L143.454 22H140.514ZM147.551 22V13.87H150.401V22H147.551ZM148.976 12.97C148.456 12.97 148.036 12.825 147.716 12.535C147.396 12.245 147.236 11.885 147.236 11.455C147.236 11.025 147.396 10.665 147.716 10.375C148.036 10.085 148.456 9.94 148.976 9.94C149.496 9.94 149.916 10.08 150.236 10.36C150.556 10.63 150.716 10.98 150.716 11.41C150.716 11.86 150.556 12.235 150.236 12.535C149.926 12.825 149.506 12.97 148.976 12.97ZM156.513 22.135C155.553 22.135 154.713 21.955 153.993 21.595C153.283 21.225 152.728 20.725 152.328 20.095C151.938 19.455 151.743 18.73 151.743 17.92C151.743 17.11 151.933 16.39 152.313 15.76C152.703 15.12 153.238 14.625 153.918 14.275C154.598 13.915 155.363 13.735 156.213 13.735C157.013 13.735 157.743 13.9 158.403 14.23C159.063 14.55 159.588 15.025 159.978 15.655C160.368 16.285 160.563 17.05 160.563 17.95C160.563 18.05 160.558 18.165 160.548 18.295C160.538 18.425 160.528 18.545 160.518 18.655H154.083V17.155H159.003L157.923 17.575C157.933 17.205 157.863 16.885 157.713 16.615C157.573 16.345 157.373 16.135 157.113 15.985C156.863 15.835 156.568 15.76 156.228 15.76C155.888 15.76 155.588 15.835 155.328 15.985C155.078 16.135 154.883 16.35 154.743 16.63C154.603 16.9 154.533 17.22 154.533 17.59V18.025C154.533 18.425 154.613 18.77 154.773 19.06C154.943 19.35 155.183 19.575 155.493 19.735C155.803 19.885 156.173 19.96 156.603 19.96C157.003 19.96 157.343 19.905 157.623 19.795C157.913 19.675 158.198 19.495 158.478 19.255L159.978 20.815C159.588 21.245 159.108 21.575 158.538 21.805C157.968 22.025 157.293 22.135 156.513 22.135ZM164.832 22.135C164.142 22.135 163.467 22.055 162.807 21.895C162.157 21.735 161.632 21.535 161.232 21.295L162.087 19.345C162.467 19.575 162.912 19.76 163.422 19.9C163.932 20.03 164.432 20.095 164.922 20.095C165.402 20.095 165.732 20.045 165.912 19.945C166.102 19.845 166.197 19.71 166.197 19.54C166.197 19.38 166.107 19.265 165.927 19.195C165.757 19.115 165.527 19.055 165.237 19.015C164.957 18.975 164.647 18.93 164.307 18.88C163.967 18.83 163.622 18.765 163.272 18.685C162.932 18.595 162.617 18.465 162.327 18.295C162.047 18.115 161.822 17.875 161.652 17.575C161.482 17.275 161.397 16.895 161.397 16.435C161.397 15.915 161.547 15.455 161.847 15.055C162.157 14.645 162.607 14.325 163.197 14.095C163.787 13.855 164.507 13.735 165.357 13.735C165.927 13.735 166.502 13.795 167.082 13.915C167.672 14.025 168.167 14.195 168.567 14.425L167.712 16.36C167.312 16.13 166.912 15.975 166.512 15.895C166.112 15.805 165.732 15.76 165.372 15.76C164.892 15.76 164.552 15.815 164.352 15.925C164.162 16.035 164.067 16.17 164.067 16.33C164.067 16.49 164.152 16.615 164.322 16.705C164.492 16.785 164.717 16.85 164.997 16.9C165.287 16.94 165.602 16.985 165.942 17.035C166.282 17.075 166.622 17.14 166.962 17.23C167.312 17.32 167.627 17.455 167.907 17.635C168.197 17.805 168.427 18.04 168.597 18.34C168.767 18.63 168.852 19.005 168.852 19.465C168.852 19.965 168.697 20.415 168.387 20.815C168.087 21.215 167.637 21.535 167.037 21.775C166.447 22.015 165.712 22.135 164.832 22.135ZM175.195 22.135C174.465 22.135 173.855 21.985 173.365 21.685C172.885 21.385 172.525 20.925 172.285 20.305C172.045 19.685 171.925 18.89 171.925 17.92C171.925 16.97 172.05 16.185 172.3 15.565C172.56 14.945 172.935 14.485 173.425 14.185C173.915 13.885 174.505 13.735 175.195 13.735C175.935 13.735 176.605 13.905 177.205 14.245C177.815 14.585 178.295 15.07 178.645 15.7C179.005 16.32 179.185 17.06 179.185 17.92C179.185 18.79 179.005 19.54 178.645 20.17C178.295 20.79 177.815 21.275 177.205 21.625C176.605 21.965 175.935 22.135 175.195 22.135ZM170.08 22V10.87H172.93V15.235L172.78 17.92L172.795 20.605V22H170.08ZM174.595 19.87C174.915 19.87 175.2 19.795 175.45 19.645C175.71 19.495 175.915 19.275 176.065 18.985C176.225 18.685 176.305 18.33 176.305 17.92C176.305 17.51 176.225 17.165 176.065 16.885C175.915 16.595 175.71 16.375 175.45 16.225C175.2 16.075 174.915 16 174.595 16C174.275 16 173.985 16.075 173.725 16.225C173.475 16.375 173.27 16.595 173.11 16.885C172.96 17.165 172.885 17.51 172.885 17.92C172.885 18.33 172.96 18.685 173.11 18.985C173.27 19.275 173.475 19.495 173.725 19.645C173.985 19.795 174.275 19.87 174.595 19.87ZM183.93 22.135C183.27 22.135 182.675 22.005 182.145 21.745C181.625 21.485 181.215 21.08 180.915 20.53C180.625 19.97 180.48 19.265 180.48 18.415V13.87H183.33V17.95C183.33 18.58 183.445 19.03 183.675 19.3C183.915 19.57 184.25 19.705 184.68 19.705C184.96 19.705 185.215 19.64 185.445 19.51C185.675 19.38 185.86 19.175 186 18.895C186.14 18.605 186.21 18.235 186.21 17.785V13.87H189.06V22H186.345V19.705L186.87 20.35C186.59 20.95 186.185 21.4 185.655 21.7C185.125 21.99 184.55 22.135 183.93 22.135ZM190.895 22V13.87H193.61V16.24L193.205 15.565C193.445 14.955 193.835 14.5 194.375 14.2C194.915 13.89 195.57 13.735 196.34 13.735V16.3C196.21 16.28 196.095 16.27 195.995 16.27C195.905 16.26 195.805 16.255 195.695 16.255C195.115 16.255 194.645 16.415 194.285 16.735C193.925 17.045 193.745 17.555 193.745 18.265V22H190.895ZM201.703 22.135C200.743 22.135 199.903 21.955 199.183 21.595C198.473 21.225 197.918 20.725 197.518 20.095C197.128 19.455 196.933 18.73 196.933 17.92C196.933 17.11 197.123 16.39 197.503 15.76C197.893 15.12 198.428 14.625 199.108 14.275C199.788 13.915 200.553 13.735 201.403 13.735C202.203 13.735 202.933 13.9 203.593 14.23C204.253 14.55 204.778 15.025 205.168 15.655C205.558 16.285 205.753 17.05 205.753 17.95C205.753 18.05 205.748 18.165 205.738 18.295C205.728 18.425 205.718 18.545 205.708 18.655H199.273V17.155H204.193L203.113 17.575C203.123 17.205 203.053 16.885 202.903 16.615C202.763 16.345 202.563 16.135 202.303 15.985C202.053 15.835 201.758 15.76 201.418 15.76C201.078 15.76 200.778 15.835 200.518 15.985C200.268 16.135 200.073 16.35 199.933 16.63C199.793 16.9 199.723 17.22 199.723 17.59V18.025C199.723 18.425 199.803 18.77 199.963 19.06C200.133 19.35 200.373 19.575 200.683 19.735C200.993 19.885 201.363 19.96 201.793 19.96C202.193 19.96 202.533 19.905 202.813 19.795C203.103 19.675 203.388 19.495 203.668 19.255L205.168 20.815C204.778 21.245 204.298 21.575 203.728 21.805C203.158 22.025 202.483 22.135 201.703 22.135ZM211.813 22V20.485L211.618 20.11V17.32C211.618 16.87 211.478 16.525 211.198 16.285C210.928 16.035 210.493 15.91 209.893 15.91C209.503 15.91 209.108 15.975 208.708 16.105C208.308 16.225 207.968 16.395 207.688 16.615L206.728 14.68C207.188 14.38 207.738 14.15 208.378 13.99C209.028 13.82 209.673 13.735 210.313 13.735C211.633 13.735 212.653 14.04 213.373 14.65C214.103 15.25 214.468 16.195 214.468 17.485V22H211.813ZM209.413 22.135C208.763 22.135 208.213 22.025 207.763 21.805C207.313 21.585 206.968 21.285 206.728 20.905C206.498 20.525 206.383 20.1 206.383 19.63C206.383 19.13 206.508 18.7 206.758 18.34C207.018 17.97 207.413 17.69 207.943 17.5C208.473 17.3 209.158 17.2 209.998 17.2H211.918V18.685H210.388C209.928 18.685 209.603 18.76 209.413 18.91C209.233 19.06 209.143 19.26 209.143 19.51C209.143 19.76 209.238 19.96 209.428 20.11C209.618 20.26 209.878 20.335 210.208 20.335C210.518 20.335 210.798 20.26 211.048 20.11C211.308 19.95 211.498 19.71 211.618 19.39L212.008 20.44C211.858 21 211.563 21.425 211.123 21.715C210.693 21.995 210.123 22.135 209.413 22.135ZM219.687 22.135C219.027 22.135 218.432 22.005 217.902 21.745C217.382 21.485 216.972 21.08 216.672 20.53C216.382 19.97 216.237 19.265 216.237 18.415V13.87H219.087V17.95C219.087 18.58 219.202 19.03 219.432 19.3C219.672 19.57 220.007 19.705 220.437 19.705C220.717 19.705 220.972 19.64 221.202 19.51C221.432 19.38 221.617 19.175 221.757 18.895C221.897 18.605 221.967 18.235 221.967 17.785V13.87H224.817V22H222.102V19.705L222.627 20.35C222.347 20.95 221.942 21.4 221.412 21.7C220.882 21.99 220.307 22.135 219.687 22.135Z" fill="black"/>
</svg>
