<svg width="61" height="61" viewBox="0 0 61 61" fill="none" xmlns="http://www.w3.org/2000/svg">
<g clip-path="url(#clip0_19_14)">
<path d="M56.5 10H4C3.00544 10 2.05161 10.3951 1.34835 11.0983C0.645088 11.8016 0.25 12.7554 0.25 13.75L0.25 47.5C0.25 48.4946 0.645088 49.4484 1.34835 50.1516C2.05161 50.8549 3.00544 51.25 4 51.25H56.5C57.4946 51.25 58.4484 50.8549 59.1516 50.1516C59.8549 49.4484 60.25 48.4946 60.25 47.5V13.75C60.25 12.7554 59.8549 11.8016 59.1516 11.0983C58.4484 10.3951 57.4946 10 56.5 10ZM51.625 14.6875L31.825 32.725C31.3957 33.1203 30.8335 33.3397 30.25 33.3397C29.6665 33.3397 29.1043 33.1203 28.675 32.725L8.875 14.6875H51.625ZM4.9375 46.5625V17.425L25.525 36.175C26.8128 37.3609 28.4994 38.0192 30.25 38.0192C32.0006 38.0192 33.6872 37.3609 34.975 36.175L55.5625 17.425V46.5625H4.9375Z" fill="#F8D700"/>
</g>
<defs>
<clipPath id="clip0_19_14">
<rect width="60" height="60" fill="white" transform="translate(0.25 0.625)"/>
</clipPath>
</defs>
</svg>
